<svg width="142" height="16" viewBox="0 0 142 16" fill="none" xmlns="http://www.w3.org/2000/svg">
<path d="M8.35 0.930176L10.81 5.81018L16.2 6.63018L12.32 10.4702L13.21 15.8602L8.35 13.3602L3.5 15.8602L4.39 10.4702L0.5 6.63018L5.9 5.81018L8.35 0.930176Z" fill="#F5CE02"/>
<path d="M39.7201 0.930176L42.1801 5.81018L47.5701 6.63018L43.6901 10.4702L44.5701 15.8602L39.7201 13.3602L34.8701 15.8602L35.7601 10.4702L31.8701 6.63018L37.2701 5.81018L39.7201 0.930176Z" fill="#F5CE02"/>
<path d="M71.0902 0.930176L73.5402 5.81018L78.9402 6.63018L75.0602 10.4702L75.9402 15.8602L71.0902 13.3602L66.2402 15.8602L67.1202 10.4702L63.2402 6.63018L68.6402 5.81018L71.0902 0.930176Z" fill="#F5CE02"/>
<path d="M102.46 0.930176L104.91 5.81018L110.31 6.63018L106.43 10.4702L107.31 15.8602L102.46 13.3602L97.6099 15.8602L98.4899 10.4702L94.6099 6.63018L100.01 5.81018L102.46 0.930176Z" fill="#F5CE02"/>
<path d="M133.83 0.930176L136.28 5.81018L141.68 6.63018L137.79 10.4702L138.68 15.8602L133.83 13.3602L128.98 15.8602L129.86 10.4702L125.98 6.63018L131.37 5.81018L133.83 0.930176Z" fill="#F5CE02"/>
</svg>
