<svg width="33" height="32" viewBox="0 0 33 32" fill="none" xmlns="http://www.w3.org/2000/svg">
<path d="M18.8335 8C17.8446 8 16.8779 8.29325 16.0556 8.84265C15.2334 9.39206 14.5925 10.173 14.2141 11.0866C13.8357 12.0002 13.7366 13.0055 13.9296 13.9755C14.1225 14.9454 14.5987 15.8363 15.298 16.5355C15.9972 17.2348 16.8881 17.711 17.858 17.9039C18.8279 18.0969 19.8333 17.9978 20.7469 17.6194C21.6605 17.241 22.4414 16.6001 22.9908 15.7779C23.5403 14.9556 23.8335 13.9889 23.8335 13C23.8335 11.6739 23.3067 10.4021 22.369 9.46447C21.4313 8.52678 20.1596 8 18.8335 8ZM18.8335 16C18.2402 16 17.6601 15.8241 17.1668 15.4944C16.6734 15.1648 16.2889 14.6962 16.0619 14.1481C15.8348 13.5999 15.7754 12.9967 15.8911 12.4147C16.0069 11.8328 16.2926 11.2982 16.7122 10.8787C17.1317 10.4591 17.6663 10.1734 18.2482 10.0576C18.8302 9.94189 19.4334 10.0013 19.9815 10.2284C20.5297 10.4554 20.9983 10.8399 21.3279 11.3333C21.6575 11.8266 21.8335 12.4067 21.8335 13C21.8335 13.7956 21.5174 14.5587 20.9548 15.1213C20.3922 15.6839 19.6291 16 18.8335 16ZM18.8335 2C15.9171 2.00331 13.1212 3.1633 11.059 5.22548C8.99679 7.28766 7.8368 10.0836 7.8335 13C7.8335 16.925 9.64725 21.085 13.0835 25.0312C14.6275 26.8145 16.3653 28.4202 18.2647 29.8188C18.4329 29.9365 18.6332 29.9997 18.8385 29.9997C19.0438 29.9997 19.2441 29.9365 19.4122 29.8188C21.3082 28.4196 23.0426 26.8139 24.5835 25.0312C28.0147 21.085 29.8335 16.925 29.8335 13C29.8302 10.0836 28.6702 7.28766 26.608 5.22548C24.5458 3.1633 21.7499 2.00331 18.8335 2ZM18.8335 27.75C16.7672 26.125 9.8335 20.1562 9.8335 13C9.8335 10.6131 10.7817 8.32387 12.4695 6.63604C14.1574 4.94821 16.4465 4 18.8335 4C21.2204 4 23.5096 4.94821 25.1975 6.63604C26.8853 8.32387 27.8335 10.6131 27.8335 13C27.8335 20.1537 20.8997 26.125 18.8335 27.75Z" fill="#818181"/>
</svg>
