<svg width="33" height="32" viewBox="0 0 33 32" fill="none" xmlns="http://www.w3.org/2000/svg">
<path d="M26.8335 2H14.8335C14.0378 2 13.2748 2.31607 12.7122 2.87868C12.1496 3.44129 11.8335 4.20435 11.8335 5V27C11.8335 27.7956 12.1496 28.5587 12.7122 29.1213C13.2748 29.6839 14.0378 30 14.8335 30H26.8335C27.6291 30 28.3922 29.6839 28.9548 29.1213C29.5174 28.5587 29.8335 27.7956 29.8335 27V5C29.8335 4.20435 29.5174 3.44129 28.9548 2.87868C28.3922 2.31607 27.6291 2 26.8335 2ZM13.8335 8H27.8335V24H13.8335V8ZM14.8335 4H26.8335C27.0987 4 27.3531 4.10536 27.5406 4.29289C27.7281 4.48043 27.8335 4.73478 27.8335 5V6H13.8335V5C13.8335 4.73478 13.9389 4.48043 14.1264 4.29289C14.3139 4.10536 14.5683 4 14.8335 4ZM26.8335 28H14.8335C14.5683 28 14.3139 27.8946 14.1264 27.7071C13.9389 27.5196 13.8335 27.2652 13.8335 27V26H27.8335V27C27.8335 27.2652 27.7281 27.5196 27.5406 27.7071C27.3531 27.8946 27.0987 28 26.8335 28Z" fill="#818181"/>
</svg>
