<svg width="31" height="30" viewBox="0 0 31 30" fill="none" xmlns="http://www.w3.org/2000/svg">
<path d="M26.4758 15.6633L18.0383 24.1008C17.8624 24.2767 17.6238 24.3756 17.375 24.3756C17.1262 24.3756 16.8876 24.2767 16.7117 24.1008C16.5358 23.9249 16.437 23.6863 16.437 23.4375C16.437 23.1888 16.5358 22.9502 16.7117 22.7743L23.5496 15.9375H5.1875C4.93886 15.9375 4.7004 15.8388 4.52459 15.6629C4.34877 15.4871 4.25 15.2487 4.25 15C4.25 14.7514 4.34877 14.5129 4.52459 14.3371C4.7004 14.1613 4.93886 14.0625 5.1875 14.0625H23.5496L16.7117 7.22581C16.5358 7.0499 16.437 6.81131 16.437 6.56253C16.437 6.31375 16.5358 6.07516 16.7117 5.89925C16.8876 5.72334 17.1262 5.62451 17.375 5.62451C17.6238 5.62451 17.8624 5.72334 18.0383 5.89925L26.4758 14.3368C26.5629 14.4238 26.6321 14.5272 26.6793 14.641C26.7265 14.7548 26.7507 14.8768 26.7507 15C26.7507 15.1232 26.7265 15.2452 26.6793 15.359C26.6321 15.4728 26.5629 15.5762 26.4758 15.6633Z" fill="#292929"/>
</svg>
