<svg width="33" height="32" viewBox="0 0 33 32" fill="none" xmlns="http://www.w3.org/2000/svg">
<path d="M28.8335 6H4.8335C4.56828 6 4.31393 6.10536 4.12639 6.29289C3.93885 6.48043 3.8335 6.73478 3.8335 7V24C3.8335 24.5304 4.04421 25.0391 4.41928 25.4142C4.79436 25.7893 5.30306 26 5.8335 26H27.8335C28.3639 26 28.8726 25.7893 29.2477 25.4142C29.6228 25.0391 29.8335 24.5304 29.8335 24V7C29.8335 6.73478 29.7281 6.48043 29.5406 6.29289C29.3531 6.10536 29.0987 6 28.8335 6ZM16.8335 16.6437L7.40475 8H26.2622L16.8335 16.6437ZM13.1722 16L5.8335 22.7262V9.27375L13.1722 16ZM14.6522 17.3563L16.1522 18.7375C16.3367 18.9069 16.5781 19.0008 16.8285 19.0008C17.0789 19.0008 17.3203 18.9069 17.5047 18.7375L19.0047 17.3563L26.2547 24H7.40475L14.6522 17.3563ZM20.4947 16L27.8335 9.2725V22.7275L20.4947 16Z" fill="#818181"/>
</svg>
